<?xml version="1.0" standalone="no"?>
<!DOCTYPE svg PUBLIC "-//W3C//DTD SVG 20010904//EN"
 "http://www.w3.org/TR/2001/REC-SVG-20010904/DTD/svg10.dtd">
<svg version="1.0" xmlns="http://www.w3.org/2000/svg"
 width="260.000000pt" height="260.000000pt" viewBox="0 0 260.000000 260.000000"
 preserveAspectRatio="xMidYMid meet">
<metadata>
Created by potrace 1.14, written by Peter Selinger 2001-2017
</metadata>
<g transform="translate(0.000000,260.000000) scale(0.100000,-0.100000)"
fill="#000000" stroke="none">
<path d="M615 1690 c-92 -27 -108 -35 -197 -96 -46 -32 -101 -63 -123 -69 -34
-10 -42 -18 -52 -51 -19 -64 -16 -109 11 -141 36 -44 52 -82 66 -162 23 -136
69 -249 129 -315 71 -78 203 -146 284 -146 50 0 147 28 197 57 135 80 214 203
266 420 9 40 26 80 36 90 10 9 41 18 71 21 78 6 109 -23 143 -134 69 -227 197
-389 358 -450 54 -21 79 -25 122 -21 80 8 174 58 229 120 72 82 95 139 140
350 14 64 23 84 52 113 33 33 35 39 30 83 -9 75 -24 96 -115 158 -187 128
-249 153 -377 153 -128 0 -198 -33 -327 -158 -84 -80 -83 -79 -158 -42 -65 32
-87 33 -149 4 -48 -21 -63 -24 -80 -15 -12 7 -21 16 -21 21 0 16 -144 152
-182 171 -51 26 -193 59 -248 58 -25 -1 -72 -9 -105 -19z m270 -95 c94 -45
176 -159 205 -283 15 -65 9 -186 -14 -258 -34 -108 -131 -215 -228 -250 -50
-19 -160 -21 -203 -4 -155 59 -255 218 -255 404 0 151 50 266 152 351 93 79
232 95 343 40z m1110 4 c55 -16 146 -89 185 -149 75 -117 94 -282 48 -416 -31
-87 -61 -133 -127 -189 -99 -84 -219 -101 -334 -46 -204 97 -286 373 -179 600
33 71 135 173 193 194 52 18 158 21 214 6z"/>
</g>
</svg>
