<?xml version="1.0" encoding="utf-8"?>
<svg version="1.1" id="Layer_1" xmlns="http://www.w3.org/2000/svg" xmlns:xlink="http://www.w3.org/1999/xlink" x="0px" y="0px"
	 viewBox="0 0 2650.502 1019.005" enable-background="new 0 0 2650.502 1019.005" xml:space="preserve">
<path d="M1226.0209,267.3763c69.4724-48.9628,147.4169-52.909,235.5536-2.7076c37.6952,20.7411,76.9587,28.303,108.3003-1.3537
	c141.1172-133.531,287.464-210.1478,481.9375-197.6485c134.2844,8.6308,250.6377,43.7656,350.6226,109.6543
	c44.1091,29.0674,89.6951,51.8564,134.9795,70.701c28.4915,11.8564,50.1138,35.9904,58.0994,65.7992
	c6.5286,24.3696,9.4192,50.6208,9.7339,78.2044c0.2573,22.5469-14.0981,42.948-35.7822,49.1313
	c-0.1724,0.0492-0.3452,0.098-0.5186,0.1464c-32.6548,4.7975-55.0024,61.4552-73.1028,148.9133
	c-29.4377,142.2374-93.6643,258.5277-208.478,326.9321c-135.8984,80.9662-283.714,95.2627-425.7566,34.5208
	c-205.7709-87.9941-317.4558-274.8125-350.6229-358.0686c-40.8303-102.492-48.5021-174.2166-165.1581-175.9882
	c-85.4388-1.2975-125.0157,11.3932-144.8518,87.9942c-48.4984,187.287-132.886,328.2083-310.0103,409.5112
	c-213.2343,97.8779-388.1527,67.2002-563.1624-59.5654c-97.3926-70.5448-160.8656-193.7374-192.2335-369.5754
	c-8.3713-46.9266-32.7699-77.3004-67.5241-96.5399c-14.219-7.8715-22.8159-23.1332-22.7952-39.3856
	c0.0955-75.0595,8.3498-136.8135,54.4449-136.8562c39.4982-5.9005,80.3957-21.6613,122.5148-46.0279
	C439.6078,19.19,659.4784-0.1467,895.7043,74.466c73.1613,23.1082,161.3268,87.4695,254.5064,180.0495
	C1174.6597,278.6345,1199.9023,283.5872,1226.0209,267.3763z M654.9051,103.9102c-235.7929,0-426.9409,178.4199-426.9409,398.512
	s191.1479,398.5119,426.9409,398.5119s426.9409-178.4199,426.9409-398.5119S890.698,103.9102,654.9051,103.9102z
	 M2033.0288,120.1553c-235.7928,0-426.9408,178.4199-426.9408,398.512s191.1479,398.5119,426.9408,398.5119
	s426.9409-178.4199,426.9409-398.5119S2268.8218,120.1553,2033.0288,120.1553z"/>
</svg>
